<!DOCTYPE svg PUBLIC "-//W3C//DTD SVG 1.1//EN" "http://www.w3.org/Graphics/SVG/1.1/DTD/svg11.dtd">

<!-- Uploaded to: SVG Repo, www.svgrepo.com, Transformed by: SVG Repo Mixer Tools -->
<svg width="120px" height="120px" viewBox="0 0 48.00 48.00" xmlns="http://www.w3.org/2000/svg" fill="#2D3748" stroke="#00000000" transform="matrix(1, 0, 0, 1, 0, 0)">

<g id="SVGRepo_bgCarrier" stroke-width="0"/>

<g id="SVGRepo_tracerCarrier" stroke-linecap="round" stroke-linejoin="round"/>

<g id="SVGRepo_iconCarrier"> <title>computer-setting</title> <g id="Layer_2" data-name="Layer 2"> <g id="invisible_box" data-name="invisible box"> <rect width="48" height="48" fill="none"/> </g> <g id="icons_Q2" data-name="icons Q2"> <g> <path d="M7,34H19a2,2,0,0,0,0-4H9V10H39V30H29a2,2,0,0,0,0,4H41a2,2,0,0,0,2-2V8a2,2,0,0,0-2-2H7A2,2,0,0,0,5,8V32A2,2,0,0,0,7,34Z"/> <path d="M44,38H4a2,2,0,0,0,0,4H44a2,2,0,0,0,0-4Z"/> <path d="M31.9,21.3A5.7,5.7,0,0,0,32,20a5.7,5.7,0,0,0-.1-1.3l-2.2-.5a4.2,4.2,0,0,0-.4-1l1.2-1.9a7.7,7.7,0,0,0-1.8-1.8l-1.9,1.2-1-.4-.5-2.2H22.7l-.5,2.2-1,.4-1.9-1.2a7.7,7.7,0,0,0-1.8,1.8l1.2,1.9a4.2,4.2,0,0,0-.4,1l-2.2.5A5.7,5.7,0,0,0,16,20a5.7,5.7,0,0,0,.1,1.3l2.2.5a4.2,4.2,0,0,0,.4,1l-1.2,1.9a7.7,7.7,0,0,0,1.8,1.8l1.9-1.2,1,.4.5,2.2h2.6l.5-2.2,1-.4,1.9,1.2a7.7,7.7,0,0,0,1.8-1.8l-1.2-1.9a4.2,4.2,0,0,0,.4-1ZM24,22a2,2,0,1,1,2-2A2,2,0,0,1,24,22Z"/> </g> </g> </g> </g>

</svg>